<?xml version="1.0" encoding="iso-8859-1"?>
<!-- Generator: Adobe Illustrator 19.0.0, SVG Export Plug-In . SVG Version: 6.00 Build 0)  -->
<svg version="1.1" id="Capa_1" xmlns="http://www.w3.org/2000/svg" xmlns:xlink="http://www.w3.org/1999/xlink" x="0px" y="0px"
	 viewBox="0 0 511.998 511.998" style="enable-background:new 0 0 511.998 511.998;" xml:space="preserve">
<g>
	<path style="fill:#E63A3B;" d="M404.912,468.223l-54.32-193.838l10.807-51.871l14.759-70.836l-42.609-21.746l-36.644,48.875H256
		h-40.905l-36.246-48.346l-0.397-0.529l-42.609,21.746l14.758,70.836l10.808,51.871L108.31,463.858
		c-5.153,18.391,9.72,33.107,27.189,26.348c17.469-6.76,25.908-10.439,37.413-3.682c11.504,6.76,23.008,6.238,29.4,3.119
		c6.391-3.119,21.979-10.975,34.158-5.199c9.566,4.539,28.328,4.889,37.23,0c8.901-4.887,29.595,2.08,35.986,5.199
		c6.391,3.119,17.896,3.641,29.4-3.119c11.504-6.758,23.861-1.559,41.33,5.199C397.888,498.483,407.664,478.043,404.912,468.223
		L404.912,468.223z M282.143,371.875h40.221c4.624,0,8.408,3.783,8.408,8.406v37.297c0,4.623-3.784,8.406-8.408,8.406h-40.221
		c-4.624,0-8.406-3.783-8.406-8.406v-37.297C273.736,375.659,277.519,371.875,282.143,371.875L282.143,371.875z M188.185,370.415
		h40.221c4.624,0,8.407,3.783,8.407,8.406v37.297c0,4.623-3.783,8.406-8.407,8.406h-40.221c-4.624,0-8.407-3.783-8.407-8.406
		v-37.297C179.777,374.198,183.561,370.415,188.185,370.415z"/>
	<g>
		<path style="fill:#FF984A;" d="M236.813,416.118v-37.297c0-4.623-3.783-8.406-8.407-8.406h-40.221
			c-4.624,0-8.407,3.783-8.407,8.406v37.297c0,4.623,3.783,8.406,8.407,8.406h40.221
			C233.029,424.524,236.813,420.741,236.813,416.118z"/>
		<path style="fill:#FF984A;" d="M273.736,380.282v37.297c0,4.623,3.782,8.406,8.406,8.406h40.221c4.624,0,8.408-3.783,8.408-8.406
			v-37.297c0-4.623-3.784-8.406-8.408-8.406h-40.221C277.519,371.875,273.736,375.659,273.736,380.282z"/>
	</g>
	<g>
		<polygon style="fill:#FF7E40;" points="71.604,262.684 150.6,222.514 135.842,151.678 58.039,192.704 		"/>
		<polygon style="fill:#FF7E40;" points="376.157,151.678 361.398,222.514 440.396,262.684 453.96,192.704 		"/>
	</g>
	<g>
		<path style="fill:#AD826E;" d="M25.001,48.932h230.147V18.93H25.001C16.75,18.93,10,25.68,10,33.93
			C10,42.182,16.75,48.932,25.001,48.932z"/>
		<path style="fill:#AD826E;" d="M255.148,18.93v30.002h231.85c8.251,0,15.001-6.75,15.001-15.002c0-8.25-6.75-15-15.001-15H255.148
			z"/>
	</g>
</g>
<path d="M486.998,8.93H25.001C11.216,8.93,0,20.145,0,33.93c0,13.786,11.216,25.002,25.001,25.002h220.147v16.962L176.4,120.145
	c-0.851,0.178-1.689,0.469-2.495,0.88l-42.609,21.746c-0.022,0.012-0.044,0.025-0.066,0.038c-0.017,0.008-0.035,0.015-0.052,0.023
	l-77.803,41.025c-3.898,2.056-5.992,6.422-5.153,10.749l13.564,69.98c0.598,3.081,2.608,5.704,5.428,7.082
	c1.386,0.677,2.888,1.015,4.39,1.015c1.555,0,3.109-0.362,4.533-1.086l67.341-34.244l7.643,36.683L98.681,461.16
	c-2.961,10.565-1.187,21.203,4.867,29.186c5.558,7.33,14.083,11.533,23.389,11.533c4.052,0,8.146-0.789,12.171-2.347l1.809-0.7
	c8.824-3.423,15.199-5.895,19.784-5.895c1.674,0,3.832,0.262,7.146,2.209c7.469,4.388,15.674,6.708,23.73,6.708
	c5.571,0,10.8-1.115,15.123-3.225l0.393-0.191c4.331-2.117,12.393-6.058,19.566-6.058c2.159,0,3.968,0.359,5.525,1.098
	c6.029,2.861,14.609,4.502,23.54,4.503c0.001,0,0.001,0,0.001,0c5.269,0,15.231-0.621,22.784-4.769
	c0.009-0.005,0.918-0.457,3.526-0.457c7.838,0,19.2,3.891,23.266,5.874c4.321,2.109,9.551,3.225,15.122,3.225
	c8.057,0,16.263-2.32,23.73-6.708c2.095-1.23,4.178-1.779,6.752-1.779c6.086,0,14.025,3.077,24.076,6.975l1.828,0.708
	c3.46,1.339,6.946,2.018,10.36,2.018c8.276,0,15.817-3.934,21.233-11.075c5.92-7.807,8.387-18.443,6.138-26.467l-53.662-191.488
	l7.643-36.683l67.342,34.244c1.423,0.724,2.977,1.086,4.532,1.086c1.502,0,3.004-0.338,4.39-1.015
	c2.82-1.378,4.83-4.001,5.428-7.082l13.564-69.98c0.839-4.327-1.255-8.693-5.153-10.749l-77.803-41.025
	c-0.017-0.009-0.034-0.016-0.052-0.023c-0.022-0.012-0.043-0.026-0.066-0.038l-42.244-21.56l-73.312-45.429V58.932h221.85
	c13.785,0,25.001-11.216,25.001-25.002C511.999,20.145,500.783,8.93,486.998,8.93z M318.992,132.676l-27.089,36.131h-71.808
	l-26.803-35.75l61.956-39.88L318.992,132.676z M78.896,247.757l-9.628-49.67l59.491-31.37l10.49,50.35L78.896,247.757z
	 M433.103,247.757l-60.355-30.69l10.491-50.35l59.491,31.37L433.103,247.757z M352.125,217.998c-0.752,1.544-1.07,3.188-1,4.797
	l-8.717,41.841l-20.851-0.007h-0.003c-5.521,0-9.998,4.476-10,9.997c-0.002,5.522,4.474,10.001,9.997,10.003l21.527,0.007
	l52.204,186.285c0.376,1.344-0.26,5.613-2.816,8.985c-1.591,2.098-3.372,3.16-5.297,3.16c-0.936,0-1.994-0.226-3.143-0.67
	l-1.815-0.703c-11.525-4.469-21.479-8.327-31.306-8.327c-6.165,0-11.688,1.483-16.883,4.535c-5.559,3.266-10.464,3.951-13.6,3.951
	c-3.517,0-5.611-0.837-6.35-1.197c-6.259-3.055-20.492-7.9-32.038-7.9c-5.191,0-9.614,0.983-13.147,2.923
	c-1.934,1.063-6.541,2.302-13.162,2.302c0,0-0.001,0-0.002,0c-5.8,0-11.675-1.009-14.969-2.572
	c-4.237-2.009-8.98-3.027-14.097-3.027c-11.801,0-22.978,5.463-28.35,8.089l-0.381,0.186c-0.738,0.36-2.835,1.197-6.352,1.197
	c-3.136,0-8.04-0.685-13.6-3.952c-5.688-3.34-11.339-4.965-17.276-4.965c-8.327,0-16.166,3.041-27.016,7.248l-1.794,0.695
	c-5.019,1.941-9.721,0.924-12.406-2.618c-2.239-2.953-2.803-7.219-1.546-11.705l53.098-189.473c0.433-1.543,0.488-3.169,0.161-4.738
	l-10.323-49.55c0.07-1.608-0.248-3.253-1-4.797l-12.684-60.885l28.309-14.448l31.595,42.141c1.889,2.519,4.853,4.001,8.001,4.001
	h81.81c3.148,0,6.112-1.482,8.001-4.001l31.595-42.141l28.31,14.448L352.125,217.998z M25.001,38.932
	C22.29,38.932,20,36.641,20,33.93c0-2.71,2.29-5,5.001-5h220.147v10.002H25.001z M486.998,38.932h-221.85V28.93h221.85
	c2.711,0,5.001,2.29,5.001,5C491.999,36.641,489.709,38.932,486.998,38.932z"/>
<path d="M228.405,360.415h-40.221c-10.149,0-18.407,8.257-18.407,18.406v37.297c0,10.149,8.258,18.406,18.407,18.406h40.221
	c10.149,0,18.407-8.257,18.407-18.406v-37.297C246.813,368.671,238.555,360.415,228.405,360.415z M226.813,414.524h-37.035v-34.109
	h37.035V414.524z"/>
<path d="M263.736,380.282v37.297c0,10.149,8.257,18.406,18.406,18.406h40.221c10.15,0,18.408-8.257,18.408-18.406v-37.297
	c0-10.15-8.258-18.406-18.408-18.406h-40.221C271.993,361.875,263.736,370.132,263.736,380.282z M283.736,381.875h37.035v34.109
	h-37.035V381.875z"/>
<path d="M291.308,284.602h0.024l0.823-0.002c5.523-0.013,9.989-4.501,9.977-10.023c-0.013-5.516-4.487-9.977-9.999-9.977h-0.024
	l-0.823,0.002c-5.523,0.013-9.989,4.501-9.977,10.023C281.321,280.141,285.796,284.602,291.308,284.602z"/>
<g>
</g>
<g>
</g>
<g>
</g>
<g>
</g>
<g>
</g>
<g>
</g>
<g>
</g>
<g>
</g>
<g>
</g>
<g>
</g>
<g>
</g>
<g>
</g>
<g>
</g>
<g>
</g>
<g>
</g>
</svg>
